<svg xmlns="http://www.w3.org/2000/svg" width="24" height="24" viewBox="0 0 24 24" fill="none">
<g clip-path="url(#clip0_4418_9808)">
<path d="M21 5.98047C17.67 5.65047 14.32 5.48047 10.98 5.48047C9 5.48047 7.02 5.58047 5.04 5.78047L3 5.98047" stroke="#fff" stroke-width="1.5" stroke-linecap="round" stroke-linejoin="round" />
<path d="M8.5 4.97L8.72 3.66C8.88 2.71 9 2 10.69 2H13.31C15 2 15.13 2.75 15.28 3.67L15.5 4.97" stroke="#fff" stroke-width="1.5" stroke-linecap="round" stroke-linejoin="round" />
<path d="M18.85 9.14062L18.2 19.2106C18.09 20.7806 18 22.0006 15.21 22.0006H8.79002C6.00002 22.0006 5.91002 20.7806 5.80002 19.2106L5.15002 9.14062" stroke="#fff" stroke-width="1.5" stroke-linecap="round" stroke-linejoin="round" />
<path d="M10.33 16.5H13.66" stroke="#fff" stroke-width="1.5" stroke-linecap="round" stroke-linejoin="round" />
<path d="M9.5 12.5H14.5" stroke="#fff" stroke-width="1.5" stroke-linecap="round" stroke-linejoin="round" />
</g>
<defs>
<clipPath id="clip0_4418_9808">
<rect width="24" height="24" fill="white"/>
</clipPath>
</defs>
</svg>